<?xml version="1.0" encoding="utf-8"?>
<!-- Generator: Adobe Illustrator 20.0.0, SVG Export Plug-In . SVG Version: 6.00 Build 0)  -->
<svg version="1.1" id="Layer_1" xmlns="http://www.w3.org/2000/svg" xmlns:xlink="http://www.w3.org/1999/xlink" x="0px" y="0px"
	 viewBox="0 0 284.6 181.3" style="enable-background:new 0 0 284.6 181.3;" xml:space="preserve">
<style type="text/css">
	.st0{opacity:0.71;fill:#20BBB2;}
	.st1{fill:#FFFFFF;}
</style>
<g>
	<g>
		<polygon class="st0" points="0,25.3 167.2,0 167.2,77.3 2.1,97 		"/>
		<polygon class="st0" points="20,82.2 284.6,103.3 284.6,181.3 20,153.9 		"/>
	</g>
	<g>
		<g>
			<polygon class="st1" points="51.2,33.1 52.7,76.1 48.7,76.7 24.7,48.3 25.8,80 20.2,80.8 18.7,37.7 23.1,37.1 46.8,65.9 
				45.6,33.9 			"/>
		</g>
		<g>
			<polygon class="st1" points="86.4,28.1 86,34.1 64.9,37.1 65.3,47.2 81.7,44.8 81.4,50.5 65.5,52.7 66.1,68.4 88,65.3 87.7,71.2 
				60.5,75 59,32 			"/>
		</g>
		<g>
			<polygon class="st1" points="152.6,18.7 142.5,63.4 133.6,64.6 123,30.4 122.1,30.5 114.5,67.4 105.4,68.7 92.6,27.2 98.3,26.4 
				109.3,62.6 110.7,62.4 118.9,23.5 126.6,22.4 137.4,58.6 138.7,58.4 147,19.5 			"/>
		</g>
	</g>
	<g>
		<g>
			<path class="st1" d="M64.6,101.9l13,43.8l-6.4-0.6l-3-10.6l-20.6-1.9l-3,10.1l-6.6-0.6l12.9-41.4L64.6,101.9z M48.9,127.8
				l17.7,1.6L60,106.6l-4.5-0.4L48.9,127.8"/>
		</g>
		<g>
			<path class="st1" d="M98.1,105c11.7,1.1,21.1,4.4,21.1,15.6c0,9.9-8.8,12.7-17.1,12L90,131.5l0,15.3l-6.4-0.6l0-42.6L98.1,105z
				 M100.6,127.1c5.3,0.5,13.1,0,13.1-7c0-5.3-3.9-8.6-11.6-9.3l-11.4-1l0,16.4L100.6,127.1"/>
		</g>
		<g>
			<polygon class="st1" points="156.1,110.2 155.4,116.1 131.5,113.9 131.5,123.8 150.2,125.5 149.6,131 131.5,129.3 131.5,144.9 
				156.4,147.1 155.8,152.8 125,150 125,107.4 			"/>
		</g>
		<g>
			<path class="st1" d="M185.4,136.6c6.6,6.6,9.4,12.2,13.2,20.1l-8.1-0.7c-2.4-6.5-5.7-12.4-11.8-19.1l-8.9-0.8l0,18l-6.4-0.6
				l0-42.6l20,1.8c9.3,0.8,16.9,5.1,16.9,13.9C200.3,135,193.6,136.5,185.4,136.6z M169.8,130.6l12.4,1.1c5.9,0.5,12.2,0.8,12.2-5.7
				c0-5.3-4-7.2-11.6-7.9l-12.9-1.2L169.8,130.6"/>
		</g>
		<g>
			<polygon class="st1" points="215.3,115.6 215.3,158.2 208.7,157.6 208.7,115 			"/>
		</g>
		<g>
			<path class="st1" d="M245.9,117.2c11.6,1.1,21.4,11.7,21.4,24.4c0,11.7-8.8,21-21.4,19.9c-12.8-1.2-21.5-12.1-21.5-23.8
				C224.4,125,234.1,116.1,245.9,117.2z M245.9,156.2c8.8,0.8,14.6-6.8,14.6-15.2c0-8.9-5.2-17.1-14.6-18
				c-9.5-0.9-14.7,6.4-14.7,15.3C231.1,146.7,237,155.4,245.9,156.2"/>
		</g>
	</g>
</g>
</svg>
